<svg width="527" height="152" viewBox="0 0 527 152" fill="none" xmlns="http://www.w3.org/2000/svg">
<path d="M202.568 57.633C202.568 59.4116 202.125 60.9827 201.239 62.3463C200.353 63.6803 199.068 64.7326 197.384 65.5034C195.701 66.2445 193.707 66.615 191.403 66.615C189.188 66.615 187.165 66.2889 185.334 65.6368C183.532 64.955 181.982 63.9915 180.682 62.7465L182.986 60.123C184.108 61.1902 185.349 62.0054 186.707 62.5686C188.096 63.1319 189.676 63.4135 191.448 63.4135C193.456 63.4135 195.14 62.9244 196.498 61.9461C197.857 60.9679 198.536 59.5598 198.536 57.7219C198.536 56.6844 198.344 55.8247 197.96 55.1429C197.576 54.4611 196.897 53.8534 195.922 53.3198C194.977 52.7862 193.633 52.2675 191.891 51.7635C188.583 50.7853 186.117 49.644 184.492 48.3397C182.868 47.0057 182.056 45.1974 182.056 42.9149C182.056 41.403 182.469 40.0394 183.296 38.824C184.123 37.6086 185.29 36.6749 186.796 36.0227C188.302 35.3409 190.015 35 191.935 35C193.943 35 195.73 35.2964 197.296 35.8893C198.891 36.4822 200.353 37.3567 201.682 38.5128L199.378 41.0029C197.281 39.1649 194.844 38.246 192.068 38.246C190.296 38.246 188.834 38.6314 187.682 39.4021C186.53 40.1728 185.954 41.2993 185.954 42.7815C185.954 43.6708 186.191 44.4267 186.663 45.0492C187.136 45.6717 187.918 46.2498 189.011 46.7834C190.104 47.317 191.64 47.8654 193.619 48.4286C196.483 49.2586 198.684 50.3406 200.22 51.6746C201.785 53.0085 202.568 54.9947 202.568 57.633Z" fill="black"/>
<path d="M212.474 58.2999L210.038 66.1259H206.228L216.196 35.4891H221.069L230.993 66.1259H227.005L224.569 58.2999H212.474ZM223.55 55.0984L218.544 38.7796L213.493 55.0984H223.55Z" fill="black"/>
<path d="M255.696 57.633C255.696 59.4116 255.253 60.9827 254.367 62.3463C253.481 63.6803 252.196 64.7326 250.513 65.5034C248.829 66.2445 246.836 66.615 244.532 66.615C242.317 66.615 240.294 66.2889 238.462 65.6368C236.661 64.955 235.11 63.9915 233.811 62.7465L236.114 60.123C237.237 61.1902 238.477 62.0054 239.836 62.5686C241.224 63.1319 242.804 63.4135 244.576 63.4135C246.585 63.4135 248.268 62.9244 249.627 61.9461C250.985 60.9679 251.665 59.5598 251.665 57.7219C251.665 56.6844 251.473 55.8247 251.089 55.1429C250.705 54.4611 250.025 53.8534 249.051 53.3198C248.106 52.7862 246.762 52.2675 245.019 51.7635C241.711 50.7853 239.245 49.644 237.621 48.3397C235.996 47.0057 235.184 45.1974 235.184 42.9149C235.184 41.403 235.598 40.0394 236.425 38.824C237.251 37.6086 238.418 36.6749 239.924 36.0227C241.431 35.3409 243.144 35 245.064 35C247.072 35 248.859 35.2964 250.424 35.8893C252.019 36.4822 253.481 37.3567 254.81 38.5128L252.506 41.0029C250.409 39.1649 247.973 38.246 245.196 38.246C243.424 38.246 241.962 38.6314 240.81 39.4021C239.659 40.1728 239.083 41.2993 239.083 42.7815C239.083 43.6708 239.319 44.4267 239.792 45.0492C240.264 45.6717 241.047 46.2498 242.14 46.7834C243.232 47.317 244.768 47.8654 246.747 48.4286C249.612 49.2586 251.812 50.3406 253.348 51.6746C254.913 53.0085 255.696 54.9947 255.696 57.633Z" fill="black"/>
<path d="M273.621 66.1259H269.767V38.824H260.242V35.4891H283.235L282.836 38.824H273.621V66.1259Z" fill="black"/>
<path d="M209.452 107.639C209.452 113.651 208.176 118.4 205.625 121.886C203.108 125.336 199.475 127.061 194.726 127.061C189.941 127.061 186.291 125.354 183.775 121.939C181.258 118.489 180 113.722 180 107.639C180 101.627 181.258 96.896 183.775 93.4455C186.326 89.9594 189.977 88.2164 194.726 88.2164C199.511 88.2164 203.161 89.9416 205.678 93.3922C208.194 96.8071 209.452 101.556 209.452 107.639ZM200.521 107.639C200.521 103.086 200.06 99.7774 199.139 97.7142C198.253 95.651 196.782 94.6194 194.726 94.6194C192.671 94.6194 191.182 95.651 190.26 97.7142C189.374 99.7774 188.931 103.086 188.931 107.639C188.931 112.192 189.374 115.5 190.26 117.564C191.182 119.627 192.671 120.658 194.726 120.658C196.817 120.658 198.306 119.627 199.192 117.564C200.078 115.5 200.521 112.192 200.521 107.639Z" fill="black"/>
<path d="M214.376 97.8209H221.712L222.297 101.076C223.573 99.6529 224.902 98.6035 226.284 97.9276C227.702 97.2162 229.297 96.8605 231.069 96.8605C233.514 96.8605 235.411 97.6075 236.757 99.1015C238.14 100.596 238.831 102.677 238.831 105.344V126.154H230.431V107.799C230.431 106.02 230.236 104.793 229.846 104.117C229.456 103.441 228.747 103.103 227.72 103.103C226.869 103.103 226.036 103.388 225.221 103.957C224.441 104.491 223.626 105.291 222.775 106.358V126.154H214.376V97.8209Z" fill="black"/>
<path d="M260.979 117.243C260.979 119.342 262.184 120.392 264.594 120.392C265.905 120.392 267.252 120.107 268.634 119.538L270.601 125.194C268.333 126.439 265.622 127.061 262.467 127.061C259.171 127.061 256.69 126.119 255.025 124.233C253.394 122.313 252.579 119.627 252.579 116.176V92.325H244.286V86.5622H260.979V117.243Z" fill="black"/>
<path d="M290.304 82.9872C291.757 82.9872 292.945 83.4497 293.866 84.3745C294.788 85.2639 295.248 86.3844 295.248 87.7361C295.248 89.1235 294.788 90.2618 293.866 91.1511C292.945 92.0404 291.757 92.4851 290.304 92.4851C288.851 92.4851 287.646 92.0404 286.689 91.1511C285.768 90.2262 285.307 89.0879 285.307 87.7361C285.307 86.3844 285.768 85.2639 286.689 84.3745C287.646 83.4497 288.851 82.9872 290.304 82.9872ZM295.355 120.392H302.585V126.154H278.98V120.392H286.955V103.584H279.246V97.8209H295.355V120.392Z" fill="black"/>
<path d="M310.007 97.8209H317.343L317.928 101.076C319.204 99.6529 320.533 98.6035 321.915 97.9276C323.333 97.2162 324.928 96.8605 326.7 96.8605C329.146 96.8605 331.042 97.6075 332.388 99.1015C333.771 100.596 334.462 102.677 334.462 105.344V126.154H326.062V107.799C326.062 106.02 325.867 104.793 325.477 104.117C325.087 103.441 324.379 103.103 323.351 103.103C322.5 103.103 321.667 103.388 320.852 103.957C320.072 104.491 319.257 105.291 318.407 106.358V126.154H310.007V97.8209Z" fill="black"/>
<path d="M349.167 114.469C349.699 118.773 351.967 120.925 355.972 120.925C358.382 120.925 360.792 120.143 363.202 118.577L366.552 123.166C365.169 124.376 363.521 125.336 361.607 126.048C359.693 126.724 357.585 127.061 355.281 127.061C352.127 127.061 349.451 126.439 347.253 125.194C345.056 123.913 343.39 122.152 342.256 119.911C341.157 117.635 340.608 115.002 340.608 112.014C340.608 109.169 341.14 106.607 342.203 104.331C343.302 102.018 344.879 100.204 346.934 98.8881C349.025 97.5363 351.506 96.8605 354.377 96.8605C357.071 96.8605 359.41 97.4474 361.395 98.6213C363.379 99.7596 364.903 101.432 365.967 103.637C367.065 105.807 367.615 108.404 367.615 111.427C367.615 112.601 367.562 113.615 367.455 114.469H349.167ZM354.377 102.516C352.853 102.516 351.63 103.086 350.709 104.224C349.787 105.327 349.238 107.034 349.061 109.346H359.428C359.357 104.793 357.673 102.516 354.377 102.516Z" fill="black"/>
<path d="M398.056 112.868C398.056 117.208 396.745 120.641 394.122 123.166C391.535 125.692 387.902 126.955 383.224 126.955C380.956 126.955 378.953 126.67 377.217 126.101C375.515 125.532 373.814 124.66 372.113 123.486L375.409 118.097C376.685 118.951 377.872 119.556 378.971 119.911C380.07 120.267 381.328 120.445 382.745 120.445C384.695 120.445 386.272 119.822 387.477 118.577C388.717 117.297 389.338 115.411 389.338 112.921V95.5799H378.067V89.1768H398.056V112.868Z" fill="black"/>
<path d="M414.038 117.19C414.038 118.506 414.268 119.449 414.729 120.018C415.225 120.552 415.952 120.819 416.909 120.819C417.759 120.819 418.627 120.552 419.514 120.018C420.4 119.449 421.126 118.684 421.693 117.724V97.8209H430.093V126.154H422.756L422.384 122.846C421.463 124.198 420.222 125.247 418.663 125.994C417.103 126.706 415.455 127.061 413.719 127.061C411.061 127.061 409.04 126.297 407.658 124.767C406.311 123.202 405.638 121.032 405.638 118.257V97.8209H414.038V117.19Z" fill="black"/>
<path d="M461.97 86.5622V126.154H454.527L454.102 123.06C453.251 124.269 452.17 125.247 450.859 125.994C449.548 126.706 448.024 127.061 446.287 127.061C442.884 127.061 440.297 125.71 438.525 123.006C436.788 120.303 435.92 116.603 435.92 111.908C435.92 108.991 436.381 106.394 437.302 104.117C438.224 101.841 439.535 100.062 441.236 98.7814C442.938 97.5008 444.922 96.8605 447.191 96.8605C449.743 96.8605 451.869 97.7498 453.57 99.5284V85.6552L461.97 86.5622ZM449.424 103.05C447.9 103.05 446.712 103.779 445.862 105.238C445.011 106.661 444.586 108.902 444.586 111.961C444.586 115.234 444.958 117.546 445.702 118.898C446.482 120.214 447.563 120.872 448.945 120.872C450.717 120.872 452.259 119.787 453.57 117.617V105.398C452.968 104.615 452.33 104.028 451.656 103.637C451.018 103.246 450.274 103.05 449.424 103.05Z" fill="black"/>
<path d="M496.399 99.475C494.556 100.222 491.845 100.596 488.265 100.596C490.108 101.414 491.472 102.392 492.358 103.53C493.28 104.669 493.741 106.127 493.741 107.906C493.741 109.72 493.245 111.356 492.252 112.815C491.26 114.238 489.86 115.358 488.052 116.176C486.245 116.994 484.154 117.404 481.779 117.404C480.609 117.404 479.511 117.297 478.483 117.083C478.199 117.226 477.969 117.457 477.792 117.777C477.65 118.062 477.579 118.364 477.579 118.684C477.579 119.218 477.774 119.645 478.164 119.965C478.589 120.249 479.422 120.392 480.663 120.392H485.341C487.467 120.392 489.346 120.747 490.976 121.459C492.607 122.17 493.865 123.148 494.751 124.394C495.637 125.639 496.08 127.044 496.08 128.609C496.08 131.561 494.786 133.856 492.199 135.492C489.647 137.164 485.908 138 480.982 138C477.473 138 474.708 137.626 472.688 136.879C470.703 136.168 469.303 135.154 468.488 133.838C467.709 132.522 467.319 130.868 467.319 128.876H474.762C474.762 129.765 474.921 130.459 475.24 130.957C475.594 131.455 476.232 131.828 477.154 132.077C478.075 132.326 479.422 132.451 481.194 132.451C483.675 132.451 485.376 132.166 486.298 131.597C487.255 131.028 487.733 130.227 487.733 129.196C487.733 128.342 487.379 127.648 486.67 127.115C485.997 126.617 484.987 126.368 483.64 126.368H479.174C476.268 126.368 474.088 125.852 472.635 124.82C471.182 123.753 470.455 122.401 470.455 120.765C470.455 119.698 470.721 118.702 471.253 117.777C471.82 116.817 472.6 116.016 473.592 115.376C471.82 114.415 470.544 113.295 469.764 112.014C468.984 110.698 468.595 109.115 468.595 107.265C468.595 105.167 469.126 103.335 470.19 101.769C471.253 100.204 472.741 99.0126 474.655 98.1944C476.569 97.3407 478.749 96.9138 481.194 96.9138C484.03 96.985 486.44 96.7182 488.424 96.1134C490.409 95.4731 492.429 94.5305 494.485 93.2854L496.399 99.475ZM481.407 102.41C480.06 102.41 478.997 102.837 478.217 103.69C477.473 104.544 477.101 105.7 477.101 107.159C477.101 108.688 477.491 109.88 478.27 110.734C479.05 111.587 480.096 112.014 481.407 112.014C482.789 112.014 483.852 111.605 484.597 110.787C485.341 109.933 485.713 108.688 485.713 107.052C485.713 103.957 484.278 102.41 481.407 102.41Z" fill="black"/>
<path d="M508.552 114.469C509.084 118.773 511.352 120.925 515.357 120.925C517.767 120.925 520.177 120.143 522.587 118.577L525.937 123.166C524.555 124.376 522.906 125.336 520.993 126.048C519.079 126.724 516.97 127.061 514.666 127.061C511.512 127.061 508.836 126.439 506.639 125.194C504.441 123.913 502.775 122.152 501.641 119.911C500.543 117.635 499.993 115.002 499.993 112.014C499.993 109.169 500.525 106.607 501.588 104.331C502.687 102.018 504.264 100.204 506.32 98.8881C508.411 97.5363 510.892 96.8605 513.762 96.8605C516.456 96.8605 518.795 97.4474 520.78 98.6213C522.765 99.7596 524.289 101.432 525.352 103.637C526.451 105.807 527 108.404 527 111.427C527 112.601 526.947 113.615 526.841 114.469H508.552ZM513.762 102.516C512.238 102.516 511.016 103.086 510.094 104.224C509.173 105.327 508.623 107.034 508.446 109.346H518.813C518.742 104.793 517.059 102.516 513.762 102.516Z" fill="black"/>
<path d="M45.0859 4.03203L58.8543 20.8887L59.475 21.6487L60.4559 21.6229C60.9915 21.6088 61.5289 21.6017 62.068 21.6017C69.7885 21.6017 77.1642 23.0572 83.9392 25.707L85.1495 26.1804L86.0737 25.2668L98.2821 13.1988L102.03 36.2322L102.141 36.9165L102.652 37.3851C112.81 46.6989 119.75 59.4561 121.626 73.8026L122.197 78.1739L125.11 74.8646C126.266 73.551 127.477 72.2905 128.728 71.1253C134.342 65.8987 141.025 62.3695 147.492 64.9807C153.74 67.5036 157.093 70.4458 158.713 73.1585C159.739 74.8775 160.065 76.5029 159.99 77.8344C159.968 77.8283 159.946 77.8201 159.923 77.8096C159.83 77.7659 159.631 77.6202 159.381 77.1756C159.135 76.7379 158.934 76.1827 158.746 75.563C158.562 74.9535 158.283 74.3132 157.888 73.6513C156.411 71.1786 153.263 68.3473 147.132 65.8719C141.229 63.4884 134.953 66.6431 129.383 71.8288C126.872 74.167 124.55 76.8761 122.529 79.5764L122.12 80.1219L122.13 80.8033C122.134 81.0916 122.136 81.3804 122.136 81.6696C122.136 86.879 121.473 91.9306 120.229 96.7461L119.607 99.1504L122.089 99.2451C124.995 99.356 127.318 101.749 127.318 104.683C127.318 107.688 124.882 110.125 121.876 110.125C120.546 110.125 119.333 109.65 118.387 108.859L116.483 107.266L115.332 109.466C114.237 111.56 113.021 113.582 111.695 115.522L110.052 117.927L112.886 118.597C115.285 119.165 117.068 121.323 117.068 123.893C117.068 126.898 114.632 129.335 111.626 129.335C109.36 129.335 107.413 127.949 106.595 125.971L105.483 123.283L103.371 125.284C93.3895 134.74 80.1689 140.804 65.5477 141.639L63.8936 141.733L63.6786 143.376C63.2499 146.65 60.4455 149.179 57.0535 149.179C53.3631 149.179 50.3715 146.188 50.3715 142.497C50.3715 142.426 50.3726 142.355 50.3748 142.284L50.4261 140.634L48.815 140.271C43.7843 139.138 38.9925 137.374 34.5268 135.066L32.8158 134.182L31.8676 135.858C30.7175 137.892 28.54 139.257 26.0462 139.257C22.3558 139.257 19.3641 136.265 19.3641 132.575C19.3641 130.887 19.9872 129.35 21.0188 128.173L22.2907 126.722L20.8863 125.399C9.25632 114.442 2 98.905 2 81.6696C2 57.7195 16.0167 37.0392 36.3032 27.3918L37.0574 27.0332L37.3326 26.2447L45.0859 4.03203Z" fill="url(#paint0_radial_966_66)" stroke="black" stroke-width="4"/>
<g filter="url(#filter0_f_966_66)">
<path d="M79.4812 69.442L55.9157 62L50.9545 83.085C50.9545 84.3253 47.1998 105.065 54.3346 106.651C63.2644 108.635 78.5407 74.8007 79.4812 69.442Z" fill="white"/>
</g>
<path d="M44.7536 59.9549L19.4314 52.0114C16.7564 56.9336 10.7047 93.7434 20.3035 96.9112C29.9023 100.079 43.8616 65.7409 44.7536 59.9549Z" fill="white" stroke="black" stroke-width="4" stroke-linejoin="round"/>
<path d="M55.9304 61.925L79.4959 69.367C78.5554 74.7257 63.279 108.56 54.3492 106.576C47.2144 104.99 50.9692 84.2503 50.9692 83.01" stroke="black" stroke-width="4" stroke-linecap="round" stroke-linejoin="round"/>
<path d="M28 112.5L31.5 118L45 110" stroke="black" stroke-width="4" stroke-linecap="round" stroke-linejoin="round"/>
<defs>
<filter id="filter0_f_966_66" x="45.9672" y="58" width="37.514" height="52.7347" filterUnits="userSpaceOnUse" color-interpolation-filters="sRGB">
<feFlood flood-opacity="0" result="BackgroundImageFix"/>
<feBlend mode="normal" in="SourceGraphic" in2="BackgroundImageFix" result="shape"/>
<feGaussianBlur stdDeviation="2" result="effect1_foregroundBlur_966_66"/>
</filter>
<radialGradient id="paint0_radial_966_66" cx="0" cy="0" r="1" gradientUnits="userSpaceOnUse" gradientTransform="translate(41 93.5) rotate(20.7019) scale(91.9361 98.5165)">
<stop stop-color="#F5F4F4"/>
<stop offset="1" stop-color="#D8D8D8"/>
</radialGradient>
</defs>
</svg>
