<svg width="510" height="152" viewBox="0 0 510 152" fill="none" xmlns="http://www.w3.org/2000/svg">
<path d="M44.7536 59.9549L19.4314 52.0114C16.7564 56.9336 10.7047 93.7434 20.3035 96.9111C29.9023 100.079 43.8616 65.7409 44.7536 59.9549Z" stroke="black" stroke-width="4" stroke-linejoin="round"/>
<path d="M55.9304 61.925L79.4959 69.3671C78.5555 74.7258 63.2791 108.56 54.3493 106.576C47.2145 104.99 50.9692 84.2503 50.9692 83.01M31.1243 115.258L34.8453 121.459L48.4886 111.537" stroke="black" stroke-width="4" stroke-linecap="round" stroke-linejoin="round"/>
<path d="M45.0859 4.03203L58.8543 20.8887L59.475 21.6487L60.4559 21.6229C60.9915 21.6088 61.5289 21.6017 62.068 21.6017C69.7885 21.6017 77.1642 23.0572 83.9392 25.707L85.1495 26.1804L86.0737 25.2668L98.2821 13.1988L102.03 36.2322L102.141 36.9165L102.652 37.3851C112.81 46.6989 119.75 59.4561 121.626 73.8026L122.197 78.1739L125.11 74.8646C126.266 73.551 127.477 72.2905 128.728 71.1253C134.342 65.8987 141.025 62.3695 147.492 64.9807C153.74 67.5036 157.093 70.4458 158.713 73.1585C159.74 74.8775 160.065 76.5029 159.99 77.8344C159.968 77.8283 159.946 77.8201 159.923 77.8096C159.83 77.7659 159.631 77.6202 159.381 77.1756C159.135 76.7379 158.934 76.1827 158.746 75.563C158.562 74.9535 158.283 74.3132 157.888 73.6513C156.411 71.1786 153.263 68.3473 147.132 65.8719C141.229 63.4884 134.953 66.6431 129.383 71.8288C126.872 74.167 124.551 76.8761 122.529 79.5764L122.12 80.1219L122.13 80.8033C122.134 81.0916 122.136 81.3804 122.136 81.6696C122.136 86.879 121.473 91.9306 120.229 96.7461L119.607 99.1504L122.089 99.2451C124.995 99.356 127.318 101.749 127.318 104.683C127.318 107.688 124.882 110.125 121.876 110.125C120.546 110.125 119.333 109.65 118.387 108.859L116.483 107.266L115.332 109.466C114.237 111.56 113.021 113.582 111.695 115.522L110.052 117.927L112.886 118.597C115.285 119.165 117.068 121.323 117.068 123.893C117.068 126.898 114.632 129.335 111.626 129.335C109.36 129.335 107.413 127.949 106.595 125.971L105.483 123.283L103.372 125.284C93.3895 134.74 80.1689 140.804 65.5477 141.639L63.8936 141.733L63.6786 143.376C63.2499 146.65 60.4455 149.179 57.0535 149.179C53.3631 149.179 50.3715 146.188 50.3715 142.497C50.3715 142.426 50.3726 142.355 50.3748 142.284L50.4261 140.634L48.815 140.271C43.7843 139.138 38.9925 137.374 34.5268 135.066L32.8158 134.182L31.8676 135.858C30.7175 137.892 28.54 139.257 26.0462 139.257C22.3558 139.257 19.3641 136.265 19.3641 132.575C19.3641 130.887 19.9872 129.35 21.0188 128.173L22.2907 126.722L20.8863 125.399C9.25632 114.442 2 98.905 2 81.6696C2 57.7195 16.0167 37.0392 36.3032 27.3918L37.0574 27.0332L37.3326 26.2447L45.0859 4.03203Z" stroke="black" stroke-width="4"/>
<path d="M185.568 46.7226C185.568 48.5012 185.125 50.0724 184.239 51.436C183.353 52.7699 182.068 53.8223 180.384 54.593C178.701 55.3341 176.707 55.7047 174.403 55.7047C172.188 55.7047 170.165 55.3786 168.334 54.7264C166.532 54.0446 164.982 53.0812 163.682 51.8362L165.986 49.2127C167.108 50.2799 168.349 51.0951 169.707 51.6583C171.096 52.2215 172.676 52.5031 174.448 52.5031C176.456 52.5031 178.14 52.014 179.498 51.0358C180.857 50.0575 181.536 48.6495 181.536 46.8116C181.536 45.774 181.344 44.9144 180.96 44.2326C180.576 43.5507 179.897 42.9431 178.922 42.4095C177.977 41.8759 176.633 41.3571 174.891 40.8532C171.583 39.8749 169.117 38.7336 167.492 37.4293C165.868 36.0954 165.056 34.2871 165.056 32.0045C165.056 30.4927 165.469 29.1291 166.296 27.9137C167.123 26.6983 168.29 25.7645 169.796 25.1124C171.302 24.4306 173.015 24.0897 174.935 24.0897C176.943 24.0897 178.73 24.3861 180.296 24.979C181.891 25.5718 183.353 26.4463 184.682 27.6024L182.378 30.0925C180.281 28.2546 177.844 27.3356 175.068 27.3356C173.296 27.3356 171.834 27.721 170.682 28.4918C169.53 29.2625 168.954 30.3889 168.954 31.8711C168.954 32.7604 169.191 33.5164 169.663 34.1389C170.136 34.7614 170.918 35.3394 172.011 35.873C173.104 36.4066 174.64 36.955 176.619 37.5183C179.483 38.3483 181.684 39.4303 183.22 40.7642C184.785 42.0982 185.568 44.0843 185.568 46.7226Z" fill="black"/>
<path d="M195.474 47.3896L193.038 55.2155H189.228L199.196 24.5788H204.069L213.993 55.2155H210.005L207.569 47.3896H195.474ZM206.55 44.1881L201.544 27.8692L196.493 44.1881H206.55Z" fill="black"/>
<path d="M238.696 46.7226C238.696 48.5012 238.253 50.0724 237.367 51.436C236.481 52.7699 235.196 53.8223 233.513 54.593C231.829 55.3341 229.836 55.7047 227.532 55.7047C225.317 55.7047 223.294 55.3786 221.462 54.7264C219.661 54.0446 218.11 53.0812 216.811 51.8362L219.114 49.2127C220.237 50.2799 221.477 51.0951 222.836 51.6583C224.224 52.2215 225.804 52.5031 227.576 52.5031C229.585 52.5031 231.268 52.014 232.627 51.0358C233.985 50.0575 234.665 48.6495 234.665 46.8116C234.665 45.774 234.473 44.9144 234.089 44.2326C233.705 43.5507 233.025 42.9431 232.051 42.4095C231.106 41.8759 229.762 41.3571 228.019 40.8532C224.711 39.8749 222.245 38.7336 220.621 37.4293C218.996 36.0954 218.184 34.2871 218.184 32.0045C218.184 30.4927 218.598 29.1291 219.425 27.9137C220.251 26.6983 221.418 25.7645 222.924 25.1124C224.431 24.4306 226.144 24.0897 228.064 24.0897C230.072 24.0897 231.859 24.3861 233.424 24.979C235.019 25.5718 236.481 26.4463 237.81 27.6024L235.506 30.0925C233.409 28.2546 230.973 27.3356 228.196 27.3356C226.424 27.3356 224.962 27.721 223.81 28.4918C222.659 29.2625 222.083 30.3889 222.083 31.8711C222.083 32.7604 222.319 33.5164 222.792 34.1389C223.264 34.7614 224.047 35.3394 225.14 35.873C226.232 36.4066 227.768 36.955 229.747 37.5183C232.612 38.3483 234.812 39.4303 236.348 40.7642C237.913 42.0982 238.696 44.0843 238.696 46.7226Z" fill="black"/>
<path d="M256.621 55.2155H252.767V27.9137H243.242V24.5788H266.235L265.836 27.9137H256.621V55.2155Z" fill="black"/>
<path d="M192.452 96.7286C192.452 102.74 191.176 107.489 188.625 110.975C186.108 114.426 182.475 116.151 177.726 116.151C172.941 116.151 169.291 114.444 166.775 111.029C164.258 107.578 163 102.811 163 96.7286C163 90.7168 164.258 85.9857 166.775 82.5352C169.326 79.0491 172.977 77.306 177.726 77.306C182.511 77.306 186.161 79.0313 188.678 82.4818C191.194 85.8968 192.452 90.6457 192.452 96.7286ZM183.521 96.7286C183.521 92.1753 183.06 88.8671 182.139 86.8039C181.253 84.7407 179.782 83.7091 177.726 83.7091C175.671 83.7091 174.182 84.7407 173.26 86.8039C172.374 88.8671 171.931 92.1753 171.931 96.7286C171.931 101.282 172.374 104.59 173.26 106.653C174.182 108.716 175.671 109.748 177.726 109.748C179.817 109.748 181.306 108.716 182.192 106.653C183.078 104.59 183.521 101.282 183.521 96.7286Z" fill="black"/>
<path d="M197.376 86.9106H204.712L205.297 90.1655C206.573 88.7426 207.902 87.6932 209.284 87.0173C210.702 86.3059 212.297 85.9501 214.069 85.9501C216.514 85.9501 218.411 86.6972 219.757 88.1912C221.14 89.6852 221.831 91.7662 221.831 94.4342V115.244H213.431V96.8887C213.431 95.11 213.236 93.8828 212.846 93.2069C212.456 92.531 211.747 92.1931 210.72 92.1931C209.869 92.1931 209.036 92.4777 208.221 93.0468C207.441 93.5804 206.626 94.3808 205.775 95.448V115.244H197.376V86.9106Z" fill="black"/>
<path d="M243.979 106.333C243.979 108.432 245.184 109.481 247.594 109.481C248.905 109.481 250.252 109.197 251.634 108.628L253.601 114.284C251.333 115.529 248.622 116.151 245.467 116.151C242.171 116.151 239.69 115.208 238.025 113.323C236.394 111.402 235.579 108.716 235.579 105.266V81.4146H227.286V75.6519H243.979V106.333Z" fill="black"/>
<path d="M273.304 72.0769C274.757 72.0769 275.945 72.5393 276.866 73.4642C277.788 74.3535 278.248 75.474 278.248 76.8258C278.248 78.2131 277.788 79.3514 276.866 80.2408C275.945 81.1301 274.757 81.5747 273.304 81.5747C271.851 81.5747 270.646 81.1301 269.689 80.2408C268.768 79.3159 268.307 78.1776 268.307 76.8258C268.307 75.474 268.768 74.3535 269.689 73.4642C270.646 72.5393 271.851 72.0769 273.304 72.0769ZM278.355 109.481H285.585V115.244H261.98V109.481H269.955V92.6733H262.246V86.9106H278.355V109.481Z" fill="black"/>
<path d="M293.007 86.9106H300.343L300.928 90.1655C302.204 88.7426 303.533 87.6932 304.915 87.0173C306.333 86.3059 307.928 85.9501 309.7 85.9501C312.146 85.9501 314.042 86.6972 315.388 88.1912C316.771 89.6852 317.462 91.7662 317.462 94.4342V115.244H309.062V96.8887C309.062 95.11 308.867 93.8828 308.477 93.2069C308.087 92.531 307.379 92.1931 306.351 92.1931C305.5 92.1931 304.667 92.4777 303.852 93.0468C303.072 93.5804 302.257 94.3808 301.407 95.448V115.244H293.007V86.9106Z" fill="black"/>
<path d="M332.167 103.558C332.699 107.863 334.967 110.015 338.972 110.015C341.382 110.015 343.792 109.232 346.202 107.667L349.552 112.256C348.169 113.465 346.521 114.426 344.607 115.137C342.693 115.813 340.585 116.151 338.281 116.151C335.127 116.151 332.451 115.529 330.253 114.284C328.056 113.003 326.39 111.242 325.256 109.001C324.157 106.724 323.608 104.092 323.608 101.104C323.608 98.2582 324.14 95.697 325.203 93.4203C326.302 91.1081 327.879 89.2939 329.934 87.9778C332.025 86.626 334.506 85.9501 337.377 85.9501C340.071 85.9501 342.41 86.5371 344.395 87.711C346.379 88.8493 347.903 90.5212 348.967 92.7267C350.065 94.8966 350.615 97.4934 350.615 100.517C350.615 101.691 350.562 102.705 350.455 103.558H332.167ZM337.377 91.6061C335.853 91.6061 334.63 92.1753 333.709 93.3136C332.787 94.4164 332.238 96.1238 332.061 98.4361H342.428C342.357 93.8828 340.673 91.6061 337.377 91.6061Z" fill="black"/>
<path d="M381.056 101.958C381.056 106.298 379.745 109.73 377.122 112.256C374.535 114.782 370.902 116.044 366.224 116.044C363.956 116.044 361.953 115.76 360.217 115.191C358.515 114.622 356.814 113.75 355.113 112.576L358.409 107.187C359.685 108.041 360.872 108.645 361.971 109.001C363.07 109.357 364.328 109.535 365.745 109.535C367.695 109.535 369.272 108.912 370.477 107.667C371.717 106.386 372.338 104.501 372.338 102.011V84.6695H361.067V78.2665H381.056V101.958Z" fill="black"/>
<path d="M397.038 106.28C397.038 107.596 397.268 108.539 397.729 109.108C398.225 109.641 398.952 109.908 399.909 109.908C400.759 109.908 401.627 109.641 402.514 109.108C403.4 108.539 404.126 107.774 404.693 106.813V86.9106H413.093V115.244H405.756L405.384 111.936C404.463 113.288 403.222 114.337 401.663 115.084C400.103 115.795 398.455 116.151 396.719 116.151C394.061 116.151 392.04 115.386 390.658 113.857C389.311 112.292 388.638 110.122 388.638 107.347V86.9106H397.038V106.28Z" fill="black"/>
<path d="M444.97 75.6519V115.244H437.527L437.102 112.149C436.251 113.359 435.17 114.337 433.859 115.084C432.548 115.795 431.024 116.151 429.287 116.151C425.884 116.151 423.297 114.799 421.525 112.096C419.788 109.392 418.92 105.693 418.92 100.997C418.92 98.0803 419.381 95.4835 420.302 93.2069C421.224 90.9303 422.535 89.1516 424.236 87.871C425.938 86.5904 427.922 85.9501 430.191 85.9501C432.743 85.9501 434.869 86.8394 436.57 88.6181V74.7448L444.97 75.6519ZM432.424 92.1397C430.9 92.1397 429.712 92.869 428.862 94.3274C428.011 95.7503 427.586 97.9914 427.586 101.051C427.586 104.323 427.958 106.636 428.702 107.987C429.482 109.303 430.563 109.962 431.945 109.962C433.717 109.962 435.259 108.877 436.57 106.707V94.4875C435.968 93.7049 435.33 93.118 434.656 92.7267C434.018 92.3354 433.274 92.1397 432.424 92.1397Z" fill="black"/>
<path d="M479.399 88.5647C477.556 89.3117 474.845 89.6852 471.265 89.6852C473.108 90.5034 474.472 91.4816 475.358 92.62C476.28 93.7583 476.741 95.2167 476.741 96.9954C476.741 98.8096 476.245 100.446 475.252 101.904C474.26 103.327 472.86 104.448 471.052 105.266C469.245 106.084 467.154 106.493 464.779 106.493C463.609 106.493 462.511 106.386 461.483 106.173C461.199 106.315 460.969 106.547 460.792 106.867C460.65 107.151 460.579 107.454 460.579 107.774C460.579 108.307 460.774 108.734 461.164 109.054C461.589 109.339 462.422 109.481 463.663 109.481H468.341C470.467 109.481 472.346 109.837 473.976 110.548C475.607 111.26 476.865 112.238 477.751 113.483C478.637 114.728 479.08 116.133 479.08 117.699C479.08 120.651 477.786 122.945 475.199 124.582C472.647 126.254 468.908 127.09 463.982 127.09C460.473 127.09 457.708 126.716 455.688 125.969C453.703 125.258 452.303 124.244 451.488 122.928C450.709 121.612 450.319 119.957 450.319 117.965H457.762C457.762 118.855 457.921 119.548 458.24 120.046C458.594 120.544 459.232 120.918 460.154 121.167C461.075 121.416 462.422 121.54 464.194 121.54C466.675 121.54 468.376 121.256 469.298 120.687C470.255 120.117 470.733 119.317 470.733 118.285C470.733 117.432 470.379 116.738 469.67 116.204C468.997 115.706 467.987 115.457 466.64 115.457H462.174C459.268 115.457 457.088 114.942 455.635 113.91C454.182 112.843 453.455 111.491 453.455 109.855C453.455 108.788 453.721 107.792 454.253 106.867C454.82 105.906 455.6 105.106 456.592 104.466C454.82 103.505 453.544 102.385 452.764 101.104C451.984 99.7878 451.595 98.2048 451.595 96.3551C451.595 94.2563 452.126 92.4243 453.19 90.8591C454.253 89.2939 455.741 88.1023 457.655 87.2841C459.569 86.4304 461.749 86.0035 464.194 86.0035C467.03 86.0746 469.44 85.8078 471.424 85.2031C473.409 84.5628 475.429 83.6201 477.485 82.3751L479.399 88.5647ZM464.407 91.4994C463.06 91.4994 461.997 91.9263 461.217 92.78C460.473 93.6338 460.101 94.7899 460.101 96.2484C460.101 97.778 460.491 98.9696 461.27 99.8234C462.05 100.677 463.096 101.104 464.407 101.104C465.789 101.104 466.852 100.695 467.597 99.8767C468.341 99.023 468.713 97.778 468.713 96.1416C468.713 93.0468 467.278 91.4994 464.407 91.4994Z" fill="black"/>
<path d="M491.552 103.558C492.084 107.863 494.352 110.015 498.357 110.015C500.767 110.015 503.177 109.232 505.587 107.667L508.937 112.256C507.555 113.465 505.906 114.426 503.993 115.137C502.079 115.813 499.97 116.151 497.666 116.151C494.512 116.151 491.836 115.529 489.639 114.284C487.441 113.003 485.775 111.242 484.641 109.001C483.543 106.724 482.993 104.092 482.993 101.104C482.993 98.2582 483.525 95.697 484.588 93.4203C485.687 91.1081 487.264 89.2939 489.32 87.9778C491.411 86.626 493.892 85.9501 496.762 85.9501C499.456 85.9501 501.795 86.5371 503.78 87.711C505.765 88.8493 507.289 90.5212 508.352 92.7267C509.451 94.8966 510 97.4934 510 100.517C510 101.691 509.947 102.705 509.841 103.558H491.552ZM496.762 91.6061C495.238 91.6061 494.016 92.1753 493.094 93.3136C492.173 94.4164 491.623 96.1238 491.446 98.4361H501.813C501.742 93.8828 500.059 91.6061 496.762 91.6061Z" fill="black"/>
</svg>
