<svg width="227" height="66" viewBox="0 0 227 66" fill="none" xmlns="http://www.w3.org/2000/svg">
<path d="M50.5832 37.4044L61.5125 40.3718L43.011 62.3792L31.8723 59.3675L50.5832 37.4044Z" fill="url(#paint0_linear_937_51)"/>
<path d="M45.2171 27.3265L50.5832 37.4044L31.8723 59.3675L23.5461 43.7305L29.1889 36.4206L32.6593 42.9381L36.3569 38.3413L45.2171 27.3265Z" fill="url(#paint1_linear_937_51)"/>
<path d="M23.3202 38.2748L12.3119 35.3857L6.8088 25.4436L17.7775 28.2611L23.3202 38.2748Z" fill="url(#paint2_linear_937_51)"/>
<path d="M17.7775 28.2611L6.8088 25.4436L24.884 3.15285L36.0626 6.01176L17.7775 28.2611Z" fill="url(#paint3_linear_937_51)"/>
<path d="M45.2171 27.3265L56.1847 30.366L61.5125 40.3718L50.5832 37.4044L45.2171 27.3265Z" fill="url(#paint4_linear_937_51)"/>
<path d="M23.3202 38.2748L17.7775 28.2611L36.0626 6.01176L44.6628 21.5492L39.1609 28.9461L35.5763 22.4701L32.035 27.0367L23.3202 38.2748Z" fill="url(#paint5_linear_937_51)"/>
<path d="M35.5763 22.4701L39.1609 28.9461L35.598 27.9914L32.035 27.0367L35.5763 22.4701Z" fill="url(#paint6_linear_937_51)"/>
<path d="M32.6593 42.9381L29.1889 36.4206L36.3569 38.3413L32.6593 42.9381Z" fill="url(#paint7_linear_937_51)"/>
<path d="M45.2171 27.3265L56.1847 30.366L61.5125 40.3718M45.2171 27.3265L50.5832 37.4044M45.2171 27.3265L36.3569 38.3413M50.5832 37.4044L61.5125 40.3718M50.5832 37.4044L31.8723 59.3675M61.5125 40.3718L43.011 62.3792L31.8723 59.3675M31.8723 59.3675L23.5461 43.7305L29.1889 36.4206M29.1889 36.4206L32.6593 42.9381L36.3569 38.3413M29.1889 36.4206L36.3569 38.3413M23.3202 38.2748L12.3119 35.3857L6.8088 25.4436M23.3202 38.2748L17.7775 28.2611M23.3202 38.2748L32.035 27.0367M17.7775 28.2611L6.8088 25.4436M17.7775 28.2611L36.0626 6.01176M6.8088 25.4436L24.884 3.15285L36.0626 6.01176M36.0626 6.01176L44.6628 21.5492L39.1609 28.9461M39.1609 28.9461L35.5763 22.4701L32.035 27.0367M39.1609 28.9461L35.598 27.9914L32.035 27.0367" stroke="black"/>
<path d="M78.74 22.18C78.74 22.98 78.54 23.6867 78.14 24.3C77.74 24.9 77.16 25.3733 76.4 25.72C75.64 26.0533 74.74 26.22 73.7 26.22C72.7 26.22 71.7867 26.0733 70.96 25.78C70.1467 25.4733 69.4467 25.04 68.86 24.48L69.9 23.3C70.4067 23.78 70.9667 24.1467 71.58 24.4C72.2067 24.6533 72.92 24.78 73.72 24.78C74.6267 24.78 75.3867 24.56 76 24.12C76.6133 23.68 76.92 23.0467 76.92 22.22C76.92 21.7533 76.8333 21.3667 76.66 21.06C76.4867 20.7533 76.18 20.48 75.74 20.24C75.3133 20 74.7067 19.7667 73.92 19.54C72.4267 19.1 71.3133 18.5867 70.58 18C69.8467 17.4 69.48 16.5867 69.48 15.56C69.48 14.88 69.6667 14.2667 70.04 13.72C70.4133 13.1733 70.94 12.7533 71.62 12.46C72.3 12.1533 73.0733 12 73.94 12C74.8467 12 75.6533 12.1333 76.36 12.4C77.08 12.6667 77.74 13.06 78.34 13.58L77.3 14.7C76.3533 13.8733 75.2533 13.46 74 13.46C73.2 13.46 72.54 13.6333 72.02 13.98C71.5 14.3267 71.24 14.8333 71.24 15.5C71.24 15.9 71.3467 16.24 71.56 16.52C71.7733 16.8 72.1267 17.06 72.62 17.3C73.1133 17.54 73.8067 17.7867 74.7 18.04C75.9933 18.4133 76.9867 18.9 77.68 19.5C78.3867 20.1 78.74 20.9933 78.74 22.18ZM83.2122 22.48L82.1122 26H80.3922L84.8922 12.22H87.0922L91.5722 26H89.7722L88.6722 22.48H83.2122ZM88.2122 21.04L85.9522 13.7L83.6722 21.04H88.2122ZM102.724 22.18C102.724 22.98 102.524 23.6867 102.124 24.3C101.724 24.9 101.144 25.3733 100.384 25.72C99.6244 26.0533 98.7244 26.22 97.6844 26.22C96.6844 26.22 95.771 26.0733 94.9444 25.78C94.131 25.4733 93.431 25.04 92.8444 24.48L93.8844 23.3C94.391 23.78 94.951 24.1467 95.5644 24.4C96.191 24.6533 96.9044 24.78 97.7044 24.78C98.611 24.78 99.371 24.56 99.9844 24.12C100.598 23.68 100.904 23.0467 100.904 22.22C100.904 21.7533 100.818 21.3667 100.644 21.06C100.471 20.7533 100.164 20.48 99.7244 20.24C99.2977 20 98.691 19.7667 97.9044 19.54C96.411 19.1 95.2977 18.5867 94.5644 18C93.831 17.4 93.4644 16.5867 93.4644 15.56C93.4644 14.88 93.651 14.2667 94.0244 13.72C94.3977 13.1733 94.9244 12.7533 95.6044 12.46C96.2844 12.1533 97.0577 12 97.9244 12C98.831 12 99.6377 12.1333 100.344 12.4C101.064 12.6667 101.724 13.06 102.324 13.58L101.284 14.7C100.338 13.8733 99.2377 13.46 97.9844 13.46C97.1844 13.46 96.5244 13.6333 96.0044 13.98C95.4844 14.3267 95.2244 14.8333 95.2244 15.5C95.2244 15.9 95.331 16.24 95.5444 16.52C95.7577 16.8 96.111 17.06 96.6044 17.3C97.0977 17.54 97.791 17.7867 98.6844 18.04C99.9777 18.4133 100.971 18.9 101.664 19.5C102.371 20.1 102.724 20.9933 102.724 22.18ZM110.817 26H109.077V13.72H104.777V12.22H115.157L114.977 13.72H110.817V26ZM81.848 44.672C81.848 47.376 81.272 49.512 80.12 51.08C78.984 52.632 77.344 53.408 75.2 53.408C73.04 53.408 71.392 52.64 70.256 51.104C69.12 49.552 68.552 47.408 68.552 44.672C68.552 41.968 69.12 39.84 70.256 38.288C71.408 36.72 73.056 35.936 75.2 35.936C77.36 35.936 79.008 36.712 80.144 38.264C81.28 39.8 81.848 41.936 81.848 44.672ZM77.816 44.672C77.816 42.624 77.608 41.136 77.192 40.208C76.792 39.28 76.128 38.816 75.2 38.816C74.272 38.816 73.6 39.28 73.184 40.208C72.784 41.136 72.584 42.624 72.584 44.672C72.584 46.72 72.784 48.208 73.184 49.136C73.6 50.064 74.272 50.528 75.2 50.528C76.144 50.528 76.816 50.064 77.216 49.136C77.616 48.208 77.816 46.72 77.816 44.672ZM84.0706 40.256H87.3826L87.6466 41.72C88.2226 41.08 88.8226 40.608 89.4466 40.304C90.0866 39.984 90.8066 39.824 91.6066 39.824C92.7106 39.824 93.5666 40.16 94.1746 40.832C94.7986 41.504 95.1106 42.44 95.1106 43.64V53H91.3186V44.744C91.3186 43.944 91.2306 43.392 91.0546 43.088C90.8786 42.784 90.5586 42.632 90.0946 42.632C89.7106 42.632 89.3346 42.76 88.9666 43.016C88.6146 43.256 88.2466 43.616 87.8626 44.096V53H84.0706V40.256ZM105.109 48.992C105.109 49.936 105.653 50.408 106.741 50.408C107.333 50.408 107.941 50.28 108.565 50.024L109.453 52.568C108.429 53.128 107.205 53.408 105.781 53.408C104.293 53.408 103.173 52.984 102.421 52.136C101.685 51.272 101.317 50.064 101.317 48.512V37.784H97.5732V35.192H105.109V48.992ZM118.348 33.584C119.004 33.584 119.54 33.792 119.956 34.208C120.372 34.608 120.58 35.112 120.58 35.72C120.58 36.344 120.372 36.856 119.956 37.256C119.54 37.656 119.004 37.856 118.348 37.856C117.692 37.856 117.148 37.656 116.716 37.256C116.3 36.84 116.092 36.328 116.092 35.72C116.092 35.112 116.3 34.608 116.716 34.208C117.148 33.792 117.692 33.584 118.348 33.584ZM120.628 50.408H123.892V53H113.236V50.408H116.836V42.848H113.356V40.256H120.628V50.408ZM127.243 40.256H130.555L130.819 41.72C131.395 41.08 131.995 40.608 132.618 40.304C133.259 39.984 133.979 39.824 134.779 39.824C135.883 39.824 136.739 40.16 137.347 40.832C137.971 41.504 138.283 42.44 138.283 43.64V53H134.491V44.744C134.491 43.944 134.403 43.392 134.227 43.088C134.051 42.784 133.731 42.632 133.267 42.632C132.883 42.632 132.507 42.76 132.139 43.016C131.787 43.256 131.419 43.616 131.035 44.096V53H127.243V40.256ZM144.921 47.744C145.161 49.68 146.185 50.648 147.993 50.648C149.081 50.648 150.169 50.296 151.257 49.592L152.769 51.656C152.145 52.2 151.401 52.632 150.537 52.952C149.673 53.256 148.721 53.408 147.681 53.408C146.257 53.408 145.049 53.128 144.057 52.568C143.065 51.992 142.313 51.2 141.801 50.192C141.305 49.168 141.057 47.984 141.057 46.64C141.057 45.36 141.297 44.208 141.777 43.184C142.273 42.144 142.985 41.328 143.913 40.736C144.857 40.128 145.977 39.824 147.273 39.824C148.489 39.824 149.545 40.088 150.441 40.616C151.337 41.128 152.025 41.88 152.505 42.872C153.001 43.848 153.249 45.016 153.249 46.376C153.249 46.904 153.225 47.36 153.177 47.744H144.921ZM147.273 42.368C146.585 42.368 146.033 42.624 145.617 43.136C145.201 43.632 144.953 44.4 144.873 45.44H149.553C149.521 43.392 148.761 42.368 147.273 42.368ZM166.992 47.024C166.992 48.976 166.4 50.52 165.216 51.656C164.048 52.792 162.408 53.36 160.296 53.36C159.272 53.36 158.368 53.232 157.584 52.976C156.816 52.72 156.048 52.328 155.28 51.8L156.768 49.376C157.344 49.76 157.88 50.032 158.376 50.192C158.872 50.352 159.44 50.432 160.08 50.432C160.96 50.432 161.672 50.152 162.216 49.592C162.776 49.016 163.056 48.168 163.056 47.048V39.248H157.968V36.368H166.992V47.024ZM174.206 48.968C174.206 49.56 174.31 49.984 174.518 50.24C174.742 50.48 175.07 50.6 175.502 50.6C175.886 50.6 176.278 50.48 176.678 50.24C177.078 49.984 177.406 49.64 177.662 49.208V40.256H181.454V53H178.142L177.974 51.512C177.558 52.12 176.998 52.592 176.294 52.928C175.59 53.248 174.846 53.408 174.062 53.408C172.862 53.408 171.95 53.064 171.326 52.376C170.718 51.672 170.414 50.696 170.414 49.448V40.256H174.206V48.968ZM195.845 35.192V53H192.485L192.293 51.608C191.909 52.152 191.421 52.592 190.829 52.928C190.237 53.248 189.549 53.408 188.765 53.408C187.229 53.408 186.061 52.8 185.261 51.584C184.477 50.368 184.085 48.704 184.085 46.592C184.085 45.28 184.293 44.112 184.709 43.088C185.125 42.064 185.717 41.264 186.485 40.688C187.253 40.112 188.149 39.824 189.173 39.824C190.325 39.824 191.285 40.224 192.053 41.024V34.784L195.845 35.192ZM190.181 42.608C189.493 42.608 188.957 42.936 188.573 43.592C188.189 44.232 187.997 45.24 187.997 46.616C187.997 48.088 188.165 49.128 188.501 49.736C188.853 50.328 189.341 50.624 189.965 50.624C190.765 50.624 191.461 50.136 192.053 49.16V43.664C191.781 43.312 191.493 43.048 191.189 42.872C190.901 42.696 190.565 42.608 190.181 42.608ZM211.388 41C210.556 41.336 209.332 41.504 207.716 41.504C208.548 41.872 209.164 42.312 209.564 42.824C209.98 43.336 210.188 43.992 210.188 44.792C210.188 45.608 209.964 46.344 209.516 47C209.068 47.64 208.436 48.144 207.62 48.512C206.804 48.88 205.86 49.064 204.788 49.064C204.26 49.064 203.764 49.016 203.3 48.92C203.172 48.984 203.068 49.088 202.988 49.232C202.924 49.36 202.892 49.496 202.892 49.64C202.892 49.88 202.98 50.072 203.156 50.216C203.348 50.344 203.724 50.408 204.284 50.408H206.396C207.356 50.408 208.204 50.568 208.94 50.888C209.676 51.208 210.244 51.648 210.644 52.208C211.044 52.768 211.244 53.4 211.244 54.104C211.244 55.432 210.66 56.464 209.492 57.2C208.34 57.952 206.652 58.328 204.428 58.328C202.844 58.328 201.596 58.16 200.684 57.824C199.788 57.504 199.156 57.048 198.788 56.456C198.436 55.864 198.26 55.12 198.26 54.224H201.62C201.62 54.624 201.692 54.936 201.836 55.16C201.996 55.384 202.284 55.552 202.7 55.664C203.116 55.776 203.724 55.832 204.524 55.832C205.644 55.832 206.412 55.704 206.828 55.448C207.26 55.192 207.476 54.832 207.476 54.368C207.476 53.984 207.316 53.672 206.996 53.432C206.692 53.208 206.236 53.096 205.628 53.096H203.612C202.3 53.096 201.316 52.864 200.66 52.4C200.004 51.92 199.676 51.312 199.676 50.576C199.676 50.096 199.796 49.648 200.036 49.232C200.292 48.8 200.644 48.44 201.092 48.152C200.292 47.72 199.716 47.216 199.364 46.64C199.012 46.048 198.836 45.336 198.836 44.504C198.836 43.56 199.076 42.736 199.556 42.032C200.036 41.328 200.708 40.792 201.572 40.424C202.436 40.04 203.42 39.848 204.524 39.848C205.804 39.88 206.892 39.76 207.788 39.488C208.684 39.2 209.596 38.776 210.524 38.216L211.388 41ZM204.62 42.32C204.012 42.32 203.532 42.512 203.18 42.896C202.844 43.28 202.676 43.8 202.676 44.456C202.676 45.144 202.852 45.68 203.204 46.064C203.556 46.448 204.028 46.64 204.62 46.64C205.244 46.64 205.724 46.456 206.06 46.088C206.396 45.704 206.564 45.144 206.564 44.408C206.564 43.016 205.916 42.32 204.62 42.32ZM216.874 47.744C217.114 49.68 218.138 50.648 219.946 50.648C221.034 50.648 222.122 50.296 223.21 49.592L224.722 51.656C224.098 52.2 223.354 52.632 222.49 52.952C221.626 53.256 220.674 53.408 219.634 53.408C218.21 53.408 217.002 53.128 216.01 52.568C215.018 51.992 214.266 51.2 213.754 50.192C213.258 49.168 213.01 47.984 213.01 46.64C213.01 45.36 213.25 44.208 213.73 43.184C214.226 42.144 214.938 41.328 215.866 40.736C216.81 40.128 217.93 39.824 219.226 39.824C220.442 39.824 221.498 40.088 222.394 40.616C223.29 41.128 223.978 41.88 224.458 42.872C224.954 43.848 225.202 45.016 225.202 46.376C225.202 46.904 225.178 47.36 225.13 47.744H216.874ZM219.226 42.368C218.538 42.368 217.986 42.624 217.57 43.136C217.154 43.632 216.906 44.4 216.826 45.44H221.506C221.474 43.392 220.714 42.368 219.226 42.368Z" fill="black"/>
<defs>
<linearGradient id="paint0_linear_937_51" x1="12.7372" y1="42.0382" x2="44.1945" y2="-1.95879" gradientUnits="userSpaceOnUse">
<stop stop-color="#D9D9D9"/>
<stop offset="1" stop-color="white"/>
</linearGradient>
<linearGradient id="paint1_linear_937_51" x1="12.7372" y1="42.0382" x2="44.1945" y2="-1.95879" gradientUnits="userSpaceOnUse">
<stop stop-color="#D9D9D9"/>
<stop offset="1" stop-color="white"/>
</linearGradient>
<linearGradient id="paint2_linear_937_51" x1="12.7372" y1="42.0382" x2="44.1945" y2="-1.95879" gradientUnits="userSpaceOnUse">
<stop stop-color="#D9D9D9"/>
<stop offset="1" stop-color="white"/>
</linearGradient>
<linearGradient id="paint3_linear_937_51" x1="12.7372" y1="42.0382" x2="44.1945" y2="-1.95879" gradientUnits="userSpaceOnUse">
<stop stop-color="#D9D9D9"/>
<stop offset="1" stop-color="white"/>
</linearGradient>
<linearGradient id="paint4_linear_937_51" x1="12.7372" y1="42.0382" x2="44.1945" y2="-1.95879" gradientUnits="userSpaceOnUse">
<stop stop-color="#D9D9D9"/>
<stop offset="1" stop-color="white"/>
</linearGradient>
<linearGradient id="paint5_linear_937_51" x1="12.7372" y1="42.0382" x2="44.1945" y2="-1.95879" gradientUnits="userSpaceOnUse">
<stop stop-color="#D9D9D9"/>
<stop offset="1" stop-color="white"/>
</linearGradient>
<linearGradient id="paint6_linear_937_51" x1="12.7372" y1="42.0382" x2="44.1945" y2="-1.95879" gradientUnits="userSpaceOnUse">
<stop stop-color="#D9D9D9"/>
<stop offset="1" stop-color="white"/>
</linearGradient>
<linearGradient id="paint7_linear_937_51" x1="12.7372" y1="42.0382" x2="44.1945" y2="-1.95879" gradientUnits="userSpaceOnUse">
<stop stop-color="#D9D9D9"/>
<stop offset="1" stop-color="white"/>
</linearGradient>
</defs>
</svg>
