<svg width="37" height="37" viewBox="0 0 37 37" fill="none" xmlns="http://www.w3.org/2000/svg">
<path d="M8.20725 14.9463C6.32294 14.9463 4.78955 16.4797 4.78955 18.364C4.78955 20.2483 6.32294 21.7817 8.20725 21.7817C10.0915 21.7817 11.625 20.2483 11.625 18.364C11.625 16.4797 10.0915 14.9463 8.20725 14.9463Z" fill="#808080"/>
<path d="M18.4604 14.9463C16.5761 14.9463 15.0427 16.4797 15.0427 18.364C15.0427 20.2483 16.5761 21.7817 18.4604 21.7817C20.3446 21.7817 21.8781 20.2483 21.8781 18.364C21.8781 16.4797 20.3446 14.9463 18.4604 14.9463Z" fill="#808080"/>
<path d="M28.7135 14.9463C26.8292 14.9463 25.2958 16.4797 25.2958 18.364C25.2958 20.2483 26.8292 21.7817 28.7135 21.7817C30.5978 21.7817 32.1312 20.2483 32.1312 18.364C32.1312 16.4797 30.5978 14.9463 28.7135 14.9463Z" fill="#808080"/>
</svg>
