<svg width="222" height="61" viewBox="0 0 222 61" fill="none" xmlns="http://www.w3.org/2000/svg">
<path d="M44.5832 35.4044L55.5125 38.3718L37.011 60.3792L25.8723 57.3675L44.5832 35.4044Z" fill="url(#paint0_linear_1061_1240)"/>
<path d="M39.2171 25.3265L44.5832 35.4044L25.8723 57.3675L17.5462 41.7305L23.189 34.4206L26.6593 40.9381L30.357 36.3413L39.2171 25.3265Z" fill="url(#paint1_linear_1061_1240)"/>
<path d="M17.3202 36.2748L6.31193 33.3857L0.808838 23.4436L11.7775 26.2611L17.3202 36.2748Z" fill="url(#paint2_linear_1061_1240)"/>
<path d="M11.7775 26.2611L0.808838 23.4436L18.884 1.15286L30.0626 4.01177L11.7775 26.2611Z" fill="url(#paint3_linear_1061_1240)"/>
<path d="M39.2171 25.3265L50.1847 28.366L55.5125 38.3718L44.5832 35.4044L39.2171 25.3265Z" fill="url(#paint4_linear_1061_1240)"/>
<path d="M17.3202 36.2748L11.7775 26.2611L30.0626 4.01177L38.6628 19.5492L33.1609 26.9461L29.5764 20.4701L26.0351 25.0367L17.3202 36.2748Z" fill="url(#paint5_linear_1061_1240)"/>
<path d="M29.5764 20.4701L33.1609 26.9461L26.0351 25.0367L29.5764 20.4701Z" fill="url(#paint6_linear_1061_1240)"/>
<path d="M26.6593 40.9381L23.189 34.4206L30.357 36.3413L26.6593 40.9381Z" fill="url(#paint7_linear_1061_1240)"/>
<path d="M44.5832 35.4044L55.5125 38.3718M44.5832 35.4044L25.8723 57.3675M44.5832 35.4044L39.2171 25.3265M55.5125 38.3718L37.011 60.3792L25.8723 57.3675M55.5125 38.3718L50.1847 28.366L39.2171 25.3265M25.8723 57.3675L17.5462 41.7305L23.189 34.4206M39.2171 25.3265L30.357 36.3413M23.189 34.4206L26.6593 40.9381L30.357 36.3413M23.189 34.4206L30.357 36.3413M17.3202 36.2748L6.31193 33.3857L0.808838 23.4436M17.3202 36.2748L11.7775 26.2611M17.3202 36.2748L26.0351 25.0367M0.808838 23.4436L11.7775 26.2611M0.808838 23.4436L18.884 1.15286L30.0626 4.01177M11.7775 26.2611L30.0626 4.01177M30.0626 4.01177L38.6628 19.5492L33.1609 26.9461M33.1609 26.9461L29.5764 20.4701L26.0351 25.0367M33.1609 26.9461L26.0351 25.0367" stroke="black"/>
<path d="M73.74 20.18C73.74 20.98 73.54 21.6867 73.14 22.3C72.74 22.9 72.16 23.3733 71.4 23.72C70.64 24.0533 69.74 24.22 68.7 24.22C67.7 24.22 66.7867 24.0733 65.96 23.78C65.1467 23.4733 64.4467 23.04 63.86 22.48L64.9 21.3C65.4067 21.78 65.9667 22.1467 66.58 22.4C67.2067 22.6533 67.92 22.78 68.72 22.78C69.6267 22.78 70.3867 22.56 71 22.12C71.6133 21.68 71.92 21.0467 71.92 20.22C71.92 19.7533 71.8333 19.3667 71.66 19.06C71.4867 18.7533 71.18 18.48 70.74 18.24C70.3133 18 69.7067 17.7667 68.92 17.54C67.4267 17.1 66.3133 16.5867 65.58 16C64.8467 15.4 64.48 14.5867 64.48 13.56C64.48 12.88 64.6667 12.2667 65.04 11.72C65.4133 11.1733 65.94 10.7533 66.62 10.46C67.3 10.1533 68.0733 10 68.94 10C69.8467 10 70.6533 10.1333 71.36 10.4C72.08 10.6667 72.74 11.06 73.34 11.58L72.3 12.7C71.3533 11.8733 70.2533 11.46 69 11.46C68.2 11.46 67.54 11.6333 67.02 11.98C66.5 12.3267 66.24 12.8333 66.24 13.5C66.24 13.9 66.3467 14.24 66.56 14.52C66.7733 14.8 67.1267 15.06 67.62 15.3C68.1133 15.54 68.8067 15.7867 69.7 16.04C70.9933 16.4133 71.9867 16.9 72.68 17.5C73.3867 18.1 73.74 18.9933 73.74 20.18ZM78.2122 20.48L77.1122 24H75.3922L79.8922 10.22H82.0922L86.5722 24H84.7722L83.6722 20.48H78.2122ZM83.2122 19.04L80.9522 11.7L78.6722 19.04H83.2122ZM97.7244 20.18C97.7244 20.98 97.5244 21.6867 97.1244 22.3C96.7244 22.9 96.1444 23.3733 95.3844 23.72C94.6244 24.0533 93.7244 24.22 92.6844 24.22C91.6844 24.22 90.771 24.0733 89.9444 23.78C89.131 23.4733 88.431 23.04 87.8444 22.48L88.8844 21.3C89.391 21.78 89.951 22.1467 90.5644 22.4C91.191 22.6533 91.9044 22.78 92.7044 22.78C93.611 22.78 94.371 22.56 94.9844 22.12C95.5977 21.68 95.9044 21.0467 95.9044 20.22C95.9044 19.7533 95.8177 19.3667 95.6444 19.06C95.471 18.7533 95.1644 18.48 94.7244 18.24C94.2977 18 93.691 17.7667 92.9044 17.54C91.411 17.1 90.2977 16.5867 89.5644 16C88.831 15.4 88.4644 14.5867 88.4644 13.56C88.4644 12.88 88.651 12.2667 89.0244 11.72C89.3977 11.1733 89.9244 10.7533 90.6044 10.46C91.2844 10.1533 92.0577 10 92.9244 10C93.831 10 94.6377 10.1333 95.3444 10.4C96.0644 10.6667 96.7244 11.06 97.3244 11.58L96.2844 12.7C95.3377 11.8733 94.2377 11.46 92.9844 11.46C92.1844 11.46 91.5244 11.6333 91.0044 11.98C90.4844 12.3267 90.2244 12.8333 90.2244 13.5C90.2244 13.9 90.331 14.24 90.5444 14.52C90.7577 14.8 91.111 15.06 91.6044 15.3C92.0977 15.54 92.791 15.7867 93.6844 16.04C94.9777 16.4133 95.971 16.9 96.6644 17.5C97.371 18.1 97.7244 18.9933 97.7244 20.18ZM105.817 24H104.077V11.72H99.7766V10.22H110.157L109.977 11.72H105.817V24ZM76.848 42.672C76.848 45.376 76.272 47.512 75.12 49.08C73.984 50.632 72.344 51.408 70.2 51.408C68.04 51.408 66.392 50.64 65.256 49.104C64.12 47.552 63.552 45.408 63.552 42.672C63.552 39.968 64.12 37.84 65.256 36.288C66.408 34.72 68.056 33.936 70.2 33.936C72.36 33.936 74.008 34.712 75.144 36.264C76.28 37.8 76.848 39.936 76.848 42.672ZM72.816 42.672C72.816 40.624 72.608 39.136 72.192 38.208C71.792 37.28 71.128 36.816 70.2 36.816C69.272 36.816 68.6 37.28 68.184 38.208C67.784 39.136 67.584 40.624 67.584 42.672C67.584 44.72 67.784 46.208 68.184 47.136C68.6 48.064 69.272 48.528 70.2 48.528C71.144 48.528 71.816 48.064 72.216 47.136C72.616 46.208 72.816 44.72 72.816 42.672ZM79.0706 38.256H82.3826L82.6466 39.72C83.2226 39.08 83.8226 38.608 84.4466 38.304C85.0866 37.984 85.8066 37.824 86.6066 37.824C87.7106 37.824 88.5666 38.16 89.1746 38.832C89.7986 39.504 90.1106 40.44 90.1106 41.64V51H86.3186V42.744C86.3186 41.944 86.2306 41.392 86.0546 41.088C85.8786 40.784 85.5586 40.632 85.0946 40.632C84.7106 40.632 84.3346 40.76 83.9666 41.016C83.6146 41.256 83.2466 41.616 82.8626 42.096V51H79.0706V38.256ZM100.109 46.992C100.109 47.936 100.653 48.408 101.741 48.408C102.333 48.408 102.941 48.28 103.565 48.024L104.453 50.568C103.429 51.128 102.205 51.408 100.781 51.408C99.2933 51.408 98.1733 50.984 97.4213 50.136C96.6853 49.272 96.3173 48.064 96.3173 46.512V35.784H92.5732V33.192H100.109V46.992ZM113.348 31.584C114.004 31.584 114.54 31.792 114.956 32.208C115.372 32.608 115.58 33.112 115.58 33.72C115.58 34.344 115.372 34.856 114.956 35.256C114.54 35.656 114.004 35.856 113.348 35.856C112.692 35.856 112.148 35.656 111.716 35.256C111.3 34.84 111.092 34.328 111.092 33.72C111.092 33.112 111.3 32.608 111.716 32.208C112.148 31.792 112.692 31.584 113.348 31.584ZM115.628 48.408H118.892V51H108.236V48.408H111.836V40.848H108.356V38.256H115.628V48.408ZM122.243 38.256H125.555L125.819 39.72C126.395 39.08 126.995 38.608 127.618 38.304C128.259 37.984 128.979 37.824 129.779 37.824C130.883 37.824 131.739 38.16 132.347 38.832C132.971 39.504 133.283 40.44 133.283 41.64V51H129.491V42.744C129.491 41.944 129.403 41.392 129.227 41.088C129.051 40.784 128.731 40.632 128.267 40.632C127.883 40.632 127.507 40.76 127.139 41.016C126.787 41.256 126.419 41.616 126.035 42.096V51H122.243V38.256ZM139.921 45.744C140.161 47.68 141.185 48.648 142.993 48.648C144.081 48.648 145.169 48.296 146.257 47.592L147.769 49.656C147.145 50.2 146.401 50.632 145.537 50.952C144.673 51.256 143.721 51.408 142.681 51.408C141.257 51.408 140.049 51.128 139.057 50.568C138.065 49.992 137.313 49.2 136.801 48.192C136.305 47.168 136.057 45.984 136.057 44.64C136.057 43.36 136.297 42.208 136.777 41.184C137.273 40.144 137.985 39.328 138.913 38.736C139.857 38.128 140.977 37.824 142.273 37.824C143.489 37.824 144.545 38.088 145.441 38.616C146.337 39.128 147.025 39.88 147.505 40.872C148.001 41.848 148.249 43.016 148.249 44.376C148.249 44.904 148.225 45.36 148.177 45.744H139.921ZM142.273 40.368C141.585 40.368 141.033 40.624 140.617 41.136C140.201 41.632 139.953 42.4 139.873 43.44H144.553C144.521 41.392 143.761 40.368 142.273 40.368ZM161.992 45.024C161.992 46.976 161.4 48.52 160.216 49.656C159.048 50.792 157.408 51.36 155.296 51.36C154.272 51.36 153.368 51.232 152.584 50.976C151.816 50.72 151.048 50.328 150.28 49.8L151.768 47.376C152.344 47.76 152.88 48.032 153.376 48.192C153.872 48.352 154.44 48.432 155.08 48.432C155.96 48.432 156.672 48.152 157.216 47.592C157.776 47.016 158.056 46.168 158.056 45.048V37.248H152.968V34.368H161.992V45.024ZM169.206 46.968C169.206 47.56 169.31 47.984 169.518 48.24C169.742 48.48 170.07 48.6 170.502 48.6C170.886 48.6 171.278 48.48 171.678 48.24C172.078 47.984 172.406 47.64 172.662 47.208V38.256H176.454V51H173.142L172.974 49.512C172.558 50.12 171.998 50.592 171.294 50.928C170.59 51.248 169.846 51.408 169.062 51.408C167.862 51.408 166.95 51.064 166.326 50.376C165.718 49.672 165.414 48.696 165.414 47.448V38.256H169.206V46.968ZM190.845 33.192V51H187.485L187.293 49.608C186.909 50.152 186.421 50.592 185.829 50.928C185.237 51.248 184.549 51.408 183.765 51.408C182.229 51.408 181.061 50.8 180.261 49.584C179.477 48.368 179.085 46.704 179.085 44.592C179.085 43.28 179.293 42.112 179.709 41.088C180.125 40.064 180.717 39.264 181.485 38.688C182.253 38.112 183.149 37.824 184.173 37.824C185.325 37.824 186.285 38.224 187.053 39.024V32.784L190.845 33.192ZM185.181 40.608C184.493 40.608 183.957 40.936 183.573 41.592C183.189 42.232 182.997 43.24 182.997 44.616C182.997 46.088 183.165 47.128 183.501 47.736C183.853 48.328 184.341 48.624 184.965 48.624C185.765 48.624 186.461 48.136 187.053 47.16V41.664C186.781 41.312 186.493 41.048 186.189 40.872C185.901 40.696 185.565 40.608 185.181 40.608ZM206.388 39C205.556 39.336 204.332 39.504 202.716 39.504C203.548 39.872 204.164 40.312 204.564 40.824C204.98 41.336 205.188 41.992 205.188 42.792C205.188 43.608 204.964 44.344 204.516 45C204.068 45.64 203.436 46.144 202.62 46.512C201.804 46.88 200.86 47.064 199.788 47.064C199.26 47.064 198.764 47.016 198.3 46.92C198.172 46.984 198.068 47.088 197.988 47.232C197.924 47.36 197.892 47.496 197.892 47.64C197.892 47.88 197.98 48.072 198.156 48.216C198.348 48.344 198.724 48.408 199.284 48.408H201.396C202.356 48.408 203.204 48.568 203.94 48.888C204.676 49.208 205.244 49.648 205.644 50.208C206.044 50.768 206.244 51.4 206.244 52.104C206.244 53.432 205.66 54.464 204.492 55.2C203.34 55.952 201.652 56.328 199.428 56.328C197.844 56.328 196.596 56.16 195.684 55.824C194.788 55.504 194.156 55.048 193.788 54.456C193.436 53.864 193.26 53.12 193.26 52.224H196.62C196.62 52.624 196.692 52.936 196.836 53.16C196.996 53.384 197.284 53.552 197.7 53.664C198.116 53.776 198.724 53.832 199.524 53.832C200.644 53.832 201.412 53.704 201.828 53.448C202.26 53.192 202.476 52.832 202.476 52.368C202.476 51.984 202.316 51.672 201.996 51.432C201.692 51.208 201.236 51.096 200.628 51.096H198.612C197.3 51.096 196.316 50.864 195.66 50.4C195.004 49.92 194.676 49.312 194.676 48.576C194.676 48.096 194.796 47.648 195.036 47.232C195.292 46.8 195.644 46.44 196.092 46.152C195.292 45.72 194.716 45.216 194.364 44.64C194.012 44.048 193.836 43.336 193.836 42.504C193.836 41.56 194.076 40.736 194.556 40.032C195.036 39.328 195.708 38.792 196.572 38.424C197.436 38.04 198.42 37.848 199.524 37.848C200.804 37.88 201.892 37.76 202.788 37.488C203.684 37.2 204.596 36.776 205.524 36.216L206.388 39ZM199.62 40.32C199.012 40.32 198.532 40.512 198.18 40.896C197.844 41.28 197.676 41.8 197.676 42.456C197.676 43.144 197.852 43.68 198.204 44.064C198.556 44.448 199.028 44.64 199.62 44.64C200.244 44.64 200.724 44.456 201.06 44.088C201.396 43.704 201.564 43.144 201.564 42.408C201.564 41.016 200.916 40.32 199.62 40.32ZM211.874 45.744C212.114 47.68 213.138 48.648 214.946 48.648C216.034 48.648 217.122 48.296 218.21 47.592L219.722 49.656C219.098 50.2 218.354 50.632 217.49 50.952C216.626 51.256 215.674 51.408 214.634 51.408C213.21 51.408 212.002 51.128 211.01 50.568C210.018 49.992 209.266 49.2 208.754 48.192C208.258 47.168 208.01 45.984 208.01 44.64C208.01 43.36 208.25 42.208 208.73 41.184C209.226 40.144 209.938 39.328 210.866 38.736C211.81 38.128 212.93 37.824 214.226 37.824C215.442 37.824 216.498 38.088 217.394 38.616C218.29 39.128 218.978 39.88 219.458 40.872C219.954 41.848 220.202 43.016 220.202 44.376C220.202 44.904 220.178 45.36 220.13 45.744H211.874ZM214.226 40.368C213.538 40.368 212.986 40.624 212.57 41.136C212.154 41.632 211.906 42.4 211.826 43.44H216.506C216.474 41.392 215.714 40.368 214.226 40.368Z" fill="black"/>
<defs>
<linearGradient id="paint0_linear_1061_1240" x1="6.7372" y1="40.0382" x2="38.1945" y2="-3.95879" gradientUnits="userSpaceOnUse">
<stop stop-color="#D9D9D9"/>
<stop offset="1" stop-color="white"/>
</linearGradient>
<linearGradient id="paint1_linear_1061_1240" x1="6.7372" y1="40.0382" x2="38.1945" y2="-3.95879" gradientUnits="userSpaceOnUse">
<stop stop-color="#D9D9D9"/>
<stop offset="1" stop-color="white"/>
</linearGradient>
<linearGradient id="paint2_linear_1061_1240" x1="43.2389" y1="11.6202" x2="-9.44526" y2="31.282" gradientUnits="userSpaceOnUse">
<stop stop-color="#D9D9D9"/>
<stop offset="1" stop-color="white"/>
</linearGradient>
<linearGradient id="paint3_linear_1061_1240" x1="6.7372" y1="40.0382" x2="38.1945" y2="-3.95879" gradientUnits="userSpaceOnUse">
<stop stop-color="#D9D9D9"/>
<stop offset="1" stop-color="white"/>
</linearGradient>
<linearGradient id="paint4_linear_1061_1240" x1="43.2389" y1="11.6202" x2="-9.44526" y2="31.282" gradientUnits="userSpaceOnUse">
<stop stop-color="#D9D9D9"/>
<stop offset="1" stop-color="white"/>
</linearGradient>
<linearGradient id="paint5_linear_1061_1240" x1="6.7372" y1="40.0382" x2="38.1945" y2="-3.95879" gradientUnits="userSpaceOnUse">
<stop stop-color="#D9D9D9"/>
<stop offset="1" stop-color="white"/>
</linearGradient>
<linearGradient id="paint6_linear_1061_1240" x1="43.2389" y1="11.6202" x2="-9.44526" y2="31.282" gradientUnits="userSpaceOnUse">
<stop stop-color="#D9D9D9"/>
<stop offset="1" stop-color="white"/>
</linearGradient>
<linearGradient id="paint7_linear_1061_1240" x1="43.2389" y1="11.6202" x2="-9.44526" y2="31.282" gradientUnits="userSpaceOnUse">
<stop stop-color="#D9D9D9"/>
<stop offset="1" stop-color="white"/>
</linearGradient>
</defs>
</svg>
