<svg width="162" height="152" viewBox="0 0 162 152" fill="none" xmlns="http://www.w3.org/2000/svg">
<path d="M45.0859 4.03203L58.8543 20.8887L59.475 21.6487L60.4559 21.6229C60.9915 21.6088 61.5289 21.6017 62.068 21.6017C69.7885 21.6017 77.1642 23.0572 83.9392 25.707L85.1495 26.1804L86.0737 25.2668L98.2821 13.1988L102.03 36.2322L102.141 36.9165L102.652 37.3851C112.81 46.6989 119.75 59.4561 121.626 73.8026L122.197 78.1739L125.11 74.8646C126.266 73.551 127.477 72.2905 128.728 71.1253C134.342 65.8987 141.025 62.3695 147.492 64.9807C153.74 67.5036 157.093 70.4458 158.713 73.1585C159.739 74.8775 160.065 76.5029 159.99 77.8344C159.968 77.8283 159.946 77.8201 159.923 77.8096C159.83 77.7659 159.631 77.6202 159.381 77.1756C159.135 76.7379 158.934 76.1827 158.746 75.563C158.562 74.9535 158.283 74.3132 157.888 73.6513C156.411 71.1786 153.263 68.3473 147.132 65.8719C141.229 63.4884 134.953 66.6431 129.383 71.8288C126.872 74.167 124.55 76.8761 122.529 79.5764L122.12 80.1219L122.13 80.8033C122.134 81.0916 122.136 81.3804 122.136 81.6696C122.136 86.879 121.473 91.9306 120.229 96.7461L119.607 99.1504L122.089 99.2451C124.995 99.356 127.318 101.749 127.318 104.683C127.318 107.688 124.882 110.125 121.876 110.125C120.546 110.125 119.333 109.65 118.387 108.859L116.483 107.266L115.332 109.466C114.237 111.56 113.021 113.582 111.695 115.522L110.052 117.927L112.886 118.597C115.285 119.165 117.068 121.323 117.068 123.893C117.068 126.898 114.632 129.335 111.626 129.335C109.36 129.335 107.413 127.949 106.595 125.971L105.483 123.283L103.371 125.284C93.3895 134.74 80.1689 140.804 65.5477 141.639L63.8936 141.733L63.6786 143.376C63.2499 146.65 60.4455 149.179 57.0535 149.179C53.3631 149.179 50.3715 146.188 50.3715 142.497C50.3715 142.426 50.3726 142.355 50.3748 142.284L50.4261 140.634L48.815 140.271C43.7843 139.138 38.9925 137.374 34.5268 135.066L32.8158 134.182L31.8676 135.858C30.7175 137.892 28.54 139.257 26.0462 139.257C22.3558 139.257 19.3641 136.265 19.3641 132.575C19.3641 130.887 19.9872 129.35 21.0188 128.173L22.2907 126.722L20.8863 125.399C9.25632 114.442 2 98.905 2 81.6696C2 57.7195 16.0167 37.0392 36.3032 27.3918L37.0574 27.0332L37.3326 26.2447L45.0859 4.03203Z" fill="url(#paint0_radial_1048_1179)" stroke="black" stroke-width="4"/>
<g filter="url(#filter0_f_1048_1179)">
<path d="M79.4813 69.442L55.9158 62L50.9546 83.085C50.9546 84.3253 47.1998 105.065 54.3347 106.651C63.2644 108.635 78.5408 74.8007 79.4813 69.442Z" fill="white"/>
</g>
<path d="M44.7535 59.9549L19.4313 52.0114C16.7563 56.9336 10.7047 93.7434 20.3035 96.9112C29.9022 100.079 43.8615 65.7409 44.7535 59.9549Z" fill="white" stroke="black" stroke-width="4" stroke-linejoin="round"/>
<path d="M55.9304 61.925L79.4959 69.367C78.5555 74.7257 63.2791 108.56 54.3493 106.576C47.2145 104.99 50.9692 84.2503 50.9692 83.01" stroke="black" stroke-width="4" stroke-linecap="round" stroke-linejoin="round"/>
<path d="M28 112.5L31.5 118L45 110" stroke="black" stroke-width="4" stroke-linecap="round" stroke-linejoin="round"/>
<defs>
<filter id="filter0_f_1048_1179" x="45.9673" y="58" width="37.5139" height="52.7347" filterUnits="userSpaceOnUse" color-interpolation-filters="sRGB">
<feFlood flood-opacity="0" result="BackgroundImageFix"/>
<feBlend mode="normal" in="SourceGraphic" in2="BackgroundImageFix" result="shape"/>
<feGaussianBlur stdDeviation="2" result="effect1_foregroundBlur_1048_1179"/>
</filter>
<radialGradient id="paint0_radial_1048_1179" cx="0" cy="0" r="1" gradientUnits="userSpaceOnUse" gradientTransform="translate(41 93.5) rotate(20.7019) scale(91.9361 98.5165)">
<stop stop-color="#F5F4F4"/>
<stop offset="1" stop-color="#D8D8D8"/>
</radialGradient>
</defs>
</svg>
